<?xml version="1.0" encoding="UTF-8"?><svg xmlns="http://www.w3.org/2000/svg" xmlns:xlink="http://www.w3.org/1999/xlink" viewBox="0 0 50 50" version="1.1" fill="#000000"><g id="surface1" fill="#000000"><path style=" " d="M 9.070313 8.007813 C 8.308594 7.992188 7.484375 8.429688 7.148438 9.242188 L 7.140625 9.265625 L 2.257813 23.105469 C 0.96875 23.441406 0 24.605469 0 25.992188 L 0 31 C 0 32.835938 0.503906 34.34375 1.414063 35.394531 C 2.101563 36.1875 3.011719 36.695313 4 36.898438 L 4 38 C 4 40.199219 5.800781 42 8 42 L 42 42 C 44.199219 42 46 40.199219 46 38 L 46 36.898438 C 46.988281 36.695313 47.898438 36.1875 48.582031 35.394531 C 49.496094 34.34375 50 32.835938 50 31 L 50 26 C 50 24.613281 49.03125 23.441406 47.746094 23.105469 L 42.859375 9.265625 L 42.847656 9.242188 C 42.515625 8.429688 41.691406 7.992188 40.933594 8.007813 C 40.824219 8.007813 40.714844 8.019531 40.609375 8.039063 C 39.777344 8.203125 39 9 39 10.003906 L 39 10.050781 L 39.78125 18.609375 L 37.828125 17.074219 C 36.949219 16.378906 35.859375 16 34.734375 16 L 29.574219 16 C 28.796875 14.238281 27.039063 13 25 13 C 22.960938 13 21.203125 14.238281 20.425781 16 L 15.371094 16 C 14.261719 16 13.179688 16.371094 12.300781 17.054688 L 12.300781 17.050781 L 10.214844 18.675781 L 11 10.050781 L 11 10.003906 C 11 9 10.222656 8.203125 9.390625 8.039063 C 9.285156 8.019531 9.175781 8.007813 9.070313 8.007813 Z M 8.992188 10.019531 L 8.054688 20.359375 L 4.65625 23 L 4.414063 23 Z M 41.003906 10.019531 L 45.585938 23 L 45.34375 23 L 41.941406 20.316406 Z M 25 16 C 26.667969 16 28 17.332031 28 19 C 28 20.667969 26.667969 22 25 22 C 23.332031 22 22 20.667969 22 19 C 22 17.332031 23.332031 16 25 16 Z M 15.371094 18 L 20.101563 18 C 20.035156 18.324219 20 18.65625 20 19 C 20 20.128906 20.394531 21.160156 21.03125 22 L 9.203125 22 L 13.53125 18.632813 L 13.53125 18.628906 C 14.058594 18.222656 14.703125 18 15.371094 18 Z M 25 18 C 24.449219 18 24 18.449219 24 19 C 24 19.550781 24.449219 20 25 20 C 25.550781 20 26 19.550781 26 19 C 26 18.449219 25.550781 18 25 18 Z M 29.898438 18 L 34.734375 18 C 35.410156 18 36.0625 18.226563 36.59375 18.644531 L 40.847656 22 L 28.96875 22 C 29.605469 21.160156 30 20.128906 30 19 C 30 18.65625 29.964844 18.324219 29.898438 18 Z M 8.179688 24 L 41.824219 24 L 27.765625 31 L 22.234375 31 Z M 3 25 L 4.144531 25 C 4.058594 25.320313 4 25.652344 4 26 L 4 34.824219 C 3.59375 34.675781 3.234375 34.441406 2.929688 34.089844 C 2.394531 33.472656 2 32.476563 2 31 L 2 25.992188 C 2 25.425781 2.429688 25 3 25 Z M 45.855469 25 L 47 25 C 47.566406 25 48 25.433594 48 26 L 48 31 C 48 32.476563 47.605469 33.472656 47.074219 34.089844 C 46.765625 34.441406 46.40625 34.675781 46 34.824219 L 46 26 C 46 25.652344 45.941406 25.320313 45.855469 25 Z M 6.039063 25.636719 L 16.15625 38.597656 L 16.167969 38.609375 C 16.574219 39.09375 17.339844 39.125 17.78125 38.679688 L 17.816406 38.644531 L 22.472656 33 L 27.527344 33 L 32.183594 38.644531 L 32.21875 38.679688 C 32.660156 39.125 33.425781 39.09375 33.832031 38.609375 L 33.84375 38.597656 L 43.964844 25.636719 C 43.984375 25.753906 44 25.875 44 26 L 44 38 C 44 39.117188 43.117188 40 42 40 L 8 40 C 6.882813 40 6 39.117188 6 38 L 6 26 C 6 25.875 6.015625 25.753906 6.039063 25.636719 Z M 40.414063 26.933594 L 32.972656 36.464844 L 29.570313 32.332031 Z M 9.585938 26.9375 L 20.425781 32.332031 L 17.027344 36.464844 Z " fill="#000000"/></g></svg>